<?xml version="1.0" standalone="no"?>
<!DOCTYPE svg PUBLIC "-//W3C//DTD SVG 20010904//EN"
 "http://www.w3.org/TR/2001/REC-SVG-20010904/DTD/svg10.dtd">
<svg version="1.0" xmlns="http://www.w3.org/2000/svg"
 width="1227.000000pt" height="1176.000000pt" viewBox="0 0 1227.000000 1176.000000"
 preserveAspectRatio="xMidYMid meet">

<g transform="translate(0.000000,1176.000000) scale(0.100000,-0.100000)"
fill="#000000" stroke="none">
<path d="M6115 11134 c-239 -14 -366 -26 -550 -50 -22 -3 -102 -16 -178 -30
-707 -126 -1348 -383 -1947 -779 -811 -537 -1451 -1286 -1864 -2185 -197 -427
-353 -973 -416 -1455 -52 -400 -54 -904 -4 -1320 135 -1135 661 -2211 1480
-3029 978 -977 2282 -1516 3664 -1516 793 0 1550 173 2255 514 1419 687 2448
1979 2800 3516 149 648 166 1390 49 2060 -121 689 -388 1357 -779 1950 -837
1268 -2206 2113 -3710 2289 -233 28 -635 45 -800 35z m430 -314 c94 -5 233
-17 310 -26 142 -16 425 -60 432 -68 3 -2 -16 -29 -40 -59 -112 -137 -135
-352 -62 -567 34 -100 79 -179 199 -350 194 -278 230 -345 260 -493 19 -90 20
-137 5 -209 -45 -217 -304 -330 -434 -190 -58 63 -86 170 -105 417 -17 214
-60 387 -140 560 -208 450 -604 772 -1076 875 -110 24 -303 38 -418 30 -182
-12 -11 23 272 56 270 31 532 39 797 24z m1192 -209 c861 -270 1605 -751 2214
-1432 462 -517 842 -1203 1031 -1864 303 -1064 250 -2160 -154 -3170 -496
-1237 -1493 -2233 -2727 -2725 -802 -319 -1691 -418 -2561 -284 -883 136
-1730 529 -2415 1121 -318 275 -588 573 -822 907 -135 193 -138 203 -27 95
631 -613 1416 -1053 2269 -1274 284 -74 555 -119 865 -144 166 -14 668 -6 830
13 907 106 1679 437 2355 1010 354 301 698 708 958 1136 148 242 207 355 207
394 0 66 -70 109 -134 82 -26 -11 -42 -28 -62 -68 -121 -241 -367 -612 -557
-843 -664 -805 -1543 -1321 -2532 -1484 -436 -72 -935 -76 -1385 -11 -892 129
-1708 496 -2420 1089 -120 100 -470 443 -530 521 -40 52 -36 49 106 -63 125
-98 404 -284 554 -369 570 -323 1185 -523 1860 -605 183 -22 789 -25 975 -5
820 89 1556 373 2165 836 686 520 1192 1247 1484 2130 52 156 47 204 -20 232
-29 12 -39 12 -66 1 -18 -8 -38 -20 -44 -28 -6 -8 -33 -79 -59 -159 -164 -499
-412 -957 -736 -1366 -114 -143 -407 -442 -539 -551 -537 -441 -1159 -726
-1857 -853 -340 -62 -786 -86 -1124 -60 -921 69 -1776 403 -2516 982 -57 45
-103 82 -103 84 0 2 28 -12 63 -32 97 -55 371 -187 493 -237 790 -326 1681
-425 2534 -281 1133 190 2129 816 2747 1724 182 268 367 648 475 974 105 318
214 843 189 908 -13 35 -58 68 -93 68 -38 0 -85 -46 -92 -91 -3 -19 -13 -81
-21 -139 -9 -58 -32 -177 -52 -265 -133 -605 -380 -1133 -751 -1600 -117 -148
-410 -441 -557 -559 -374 -298 -815 -532 -1290 -686 -123 -40 -383 -110 -407
-110 -6 0 53 33 133 73 663 337 1147 812 1448 1422 304 617 337 1216 95 1734
-131 280 -373 533 -629 655 -321 155 -708 154 -1020 -2 -238 -119 -405 -309
-476 -542 -28 -90 -32 -246 -10 -325 37 -132 156 -283 264 -334 186 -89 335
-63 596 104 161 104 222 130 306 130 56 -1 80 -6 120 -27 137 -71 225 -251
209 -428 -13 -148 -59 -286 -163 -485 -212 -410 -495 -724 -834 -929 -401
-242 -922 -282 -1313 -101 -455 210 -707 752 -555 1193 55 158 144 282 382
533 309 325 411 472 475 686 23 74 27 107 27 208 0 102 -4 132 -26 200 -77
234 -251 388 -457 402 -227 16 -431 -129 -569 -404 -57 -114 -75 -166 -122
-338 -22 -82 -52 -186 -66 -230 -129 -401 -375 -537 -689 -380 -260 131 -391
440 -379 895 16 579 261 1138 651 1481 286 252 649 401 1014 416 212 9 369
-19 745 -134 99 -30 231 -68 293 -84 327 -84 628 -76 847 25 254 116 425 352
425 587 0 81 -30 203 -67 272 -41 75 -133 169 -203 206 -190 102 -396 62 -637
-121 -45 -35 -130 -100 -188 -145 -124 -96 -215 -144 -284 -151 -131 -12 -235
82 -261 239 -10 56 -9 78 4 130 43 166 199 321 438 434 363 171 831 165 1188
-15 322 -163 581 -472 689 -825 38 -125 48 -184 61 -360 21 -273 64 -407 164
-509 57 -59 97 -83 171 -102 243 -65 525 121 580 383 31 143 10 321 -55 477
-37 88 -97 186 -232 379 -54 76 -111 162 -127 190 -103 180 -113 389 -24 505
29 39 137 112 164 112 10 0 89 -22 176 -49z m-2757 27 c-86 -39 -207 -102
-271 -143 -89 -57 -231 -199 -277 -277 -131 -222 -116 -483 39 -652 91 -100
196 -142 333 -134 143 9 245 63 501 266 176 140 275 192 374 200 62 4 77 1
125 -22 67 -33 109 -80 149 -165 25 -53 30 -78 31 -140 2 -168 -101 -313 -289
-406 -134 -67 -194 -80 -365 -79 -182 0 -283 19 -600 114 -437 132 -578 160
-795 160 -162 0 -265 -12 -422 -51 -447 -109 -845 -391 -1108 -784 -199 -299
-313 -600 -372 -985 -21 -140 -24 -486 -5 -600 61 -367 220 -614 475 -739 213
-104 408 -109 589 -14 82 43 135 87 192 161 99 129 154 262 237 572 97 359
228 554 408 606 173 51 340 -87 388 -321 14 -72 14 -85 -1 -163 -40 -203 -137
-354 -417 -648 -74 -77 -159 -169 -190 -205 -143 -163 -241 -335 -285 -504
-24 -87 -27 -120 -28 -255 0 -136 3 -168 26 -261 107 -426 394 -744 801 -888
173 -61 269 -75 502 -75 190 0 222 2 336 27 481 102 892 392 1233 867 166 232
316 532 365 734 66 270 19 503 -137 668 -79 83 -137 123 -220 148 -161 50
-309 13 -537 -135 -204 -132 -304 -157 -411 -102 -189 97 -231 354 -94 580 98
162 292 296 507 349 118 29 322 31 438 4 162 -37 308 -112 443 -227 188 -160
337 -406 406 -669 78 -302 59 -643 -53 -980 -134 -401 -353 -752 -666 -1066
-575 -578 -1366 -914 -2155 -914 -237 0 -528 47 -838 136 -451 129 -730 260
-1017 477 -112 85 -336 313 -425 432 -278 371 -433 783 -471 1257 -19 235 8
642 66 985 207 1220 881 2319 1890 3079 151 114 263 189 440 294 151 90 502
264 655 326 184 73 615 213 500 162z"/>
</g>
</svg>
